# xmcd CD database file
#
# Track frame offsets:
#	150
#	3615
#	23735
#	41057
#	59082
#	77255
#	97170
#	118332
#	135517
#	155045
#	172242
#	194440
#	213932
#
# Disc length: 2946 seconds
#
# Revision: 0
# Processed by: cddbd v1.4PL0 Copyright (c) Steve Scherf et al.
# Submitted via: Feurio! 1.61 - http://www.feurio.com
#
DISCID=bb0b800d
DTITLE=Eddie M - Eddie M
DYEAR=1900
DGENRE=
TTITLE0=Intro
TTITLE1=Baby Leave The Lights On
TTITLE2=Zipcode
TTITLE3=My Love Goes With You
TTITLE4=Hey JJ
TTITLE5=Girl To A Woman
TTITLE6=Sailin'
TTITLE7=What Does It Take
TTITLE8=In My Dreams
TTITLE9=Don't Give Up On Love
TTITLE10=Divided Soul
TTITLE11=Not Forgotten
TTITLE12=Outro
EXTD=
EXTT0=
EXTT1=
EXTT2=
EXTT3=
EXTT4=
EXTT5=
EXTT6=
EXTT7=
EXTT8=
EXTT9=
EXTT10=
EXTT11=
EXTT12=
PLAYORDER=
